# xmcd
# 
# Track frame offsets:
#     150
#     17893
#     36855
#     52298
#     75662
#     93546
#     109553
#     127161
#     142012
#     157535
#     178040
#     194700
#     205000
#     218691
#     233056
#     247384
#     267503
# 
# Disc length: 3768
# 
# Revision: 2
# Processed by: cddbd v1.5.2PL0 Copyright (c) Steve Scherf et al.
# Submitted via: fre:ac v1.0.17
# 
DISCID=fc0eb611
DTITLE=Di paulo e paulino - Participação especial
DYEAR=2014
DGENRE=Country
TTITLE0=Amor de primavera
TTITLE1=Filho e pai
TTITLE2=Nosso segredo
TTITLE3=Barco de papel/homem de pedra
TTITLE4=O cheiro puro deste chão
TTITLE5=O ladrão
TTITLE6=Onde anda você
TTITLE7=Feito cachoeira
TTITLE8=To por ai
TTITLE9=Não aprendi dizer adeus
TTITLE10=Onde andarás
TTITLE11=Garça branca
TTITLE12=Parabéns querido
TTITLE13=Paixão danada
TTITLE14=Chico Mineiro
TTITLE15=Ela vai voltar
TTITLE16=O amor que se perdeu
EXTD=bom de mais
EXTT0=
EXTT1=
EXTT2=
EXTT3=
EXTT4=
EXTT5=
EXTT6=
EXTT7=
EXTT8=
EXTT9=
EXTT10=
EXTT11=
EXTT12=
EXTT13=
EXTT14=
EXTT15=
EXTT16=
PLAYORDER=
